<?xml version="1.0" encoding="utf-8"?><svg viewBox="0 0 24 24" xmlns="http://www.w3.org/2000/svg" xmlns:xlink="http://www.w3.org/1999/xlink"><style>:root>svg{display:none}:root>svg:target{display:block}</style><svg fill="none" viewBox="0 0 24 24" id="arrow-next" xmlns="http://www.w3.org/2000/svg"><path fill-rule="evenodd" clip-rule="evenodd" d="M14.793 6.793a1 1 0 011.414 0l4.5 4.5a1 1 0 010 1.414l-4.5 4.5a1 1 0 01-1.414-1.414L17.586 13H4a1 1 0 110-2h13.586l-2.793-2.793a1 1 0 010-1.414z" fill="#424551"/></svg><svg fill="none" viewBox="0 0 24 24" id="arrow-prev" xmlns="http://www.w3.org/2000/svg"><path fill-rule="evenodd" clip-rule="evenodd" d="M9.207 17.207a1 1 0 01-1.414 0l-4.5-4.5a1 1 0 010-1.414l4.5-4.5a1 1 0 011.414 1.414L6.414 11H20a1 1 0 110 2H6.414l2.793 2.793a1 1 0 010 1.414z" fill="#424551"/></svg><svg fill="none" viewBox="0 0 24 24" id="arrow-right" xmlns="http://www.w3.org/2000/svg"><path fill-rule="evenodd" clip-rule="evenodd" d="M14.793 6.793a1 1 0 011.414 0l4.5 4.5a1 1 0 010 1.414l-4.5 4.5a1 1 0 01-1.414-1.414L17.586 13H4a1 1 0 110-2h13.586l-2.793-2.793a1 1 0 010-1.414z" fill="#1E212C"/></svg><svg fill="none" viewBox="0 0 24 24" id="chat" xmlns="http://www.w3.org/2000/svg"><path fill-rule="evenodd" clip-rule="evenodd" d="M21.923 10.567a7.753 7.753 0 01-.98 2.787c.037.214.056.43.056.647 0 .752-.218 1.473-.622 2.127-.201.327-.253.71-.273.963-.023.29-.015.607.005.912.023.342.066.7.114 1.04-.39-.115-.814-.229-1.217-.32a8.679 8.679 0 00-.991-.172c-.272-.029-.664-.05-1.015.063a8.139 8.139 0 01-2.5.386 8.045 8.045 0 01-2.882-.514 13.24 13.24 0 01-4.068-.437C9.129 19.873 11.728 21 14.5 21c1.082 0 2.122-.166 3.08-.471h.009c.025 0 .093-.002.22.01.201.022.459.068.756.135.593.134 1.258.33 1.777.495 1.1.35 2.166-.61 1.97-1.727a15.772 15.772 0 01-.207-1.575 4.46 4.46 0 01-.007-.619c.005-.064.011-.103.015-.125A6.012 6.012 0 0023 14a6.026 6.026 0 00-1.077-3.433z" fill="#1E212C"/><path fill-rule="evenodd" clip-rule="evenodd" d="M5.597 5.698C4.249 6.728 3.5 8.082 3.5 9.5c0 .707.184 1.388.529 2.021.131.241.169.49.182.659.015.183.007.372-.009.549a8.768 8.768 0 01-.2 1.148c-.106.46-.243.953-.383 1.415a27.508 27.508 0 011.653-.549c.443-.129.89-.24 1.287-.304.343-.054.84-.107 1.268.041.96.332 2.034.52 3.173.52 2.147 0 4.054-.667 5.403-1.698C17.75 12.27 18.5 10.918 18.5 9.5c0-1.418-.75-2.771-2.097-3.802C15.053 4.667 13.147 4 11 4c-2.148 0-4.054.667-5.403 1.698zM4.382 4.11C6.109 2.79 8.452 2 11 2c2.547 0 4.89.788 6.617 2.11C19.346 5.43 20.5 7.327 20.5 9.5c0 2.172-1.154 4.069-2.883 5.39C15.89 16.213 13.547 17 11 17c-1.343 0-2.626-.219-3.791-.617-.001.003-.096-.006-.338.032-.278.044-.634.13-1.038.248-.806.235-1.71.568-2.4.836-1.193.464-2.409-.682-2.007-1.903.213-.647.465-1.465.628-2.171a6.86 6.86 0 00.157-.877c.007-.077.008-.133.008-.17a6.176 6.176 0 01-.72-2.878c0-2.172 1.154-4.069 2.883-5.39z" fill="#1E212C"/></svg><svg fill="none" viewBox="0 0 24 24" id="facebook" xmlns="http://www.w3.org/2000/svg"><path d="M17.563 1.005L14.786 1c-3.12 0-5.137 2.125-5.137 5.414v2.497H6.857c-.242 0-.437.2-.437.448v3.617c0 .248.196.449.437.449h2.792v9.126c0 .248.195.449.437.449h3.643a.443.443 0 00.437-.449v-9.126h3.265c.241 0 .436-.2.436-.449l.002-3.617a.456.456 0 00-.128-.317.431.431 0 00-.31-.131h-3.265V6.794c0-1.017.236-1.533 1.525-1.533h1.871c.241 0 .437-.202.437-.45V1.454a.443.443 0 00-.436-.448z" fill="#1E212C"/></svg><svg fill="none" viewBox="0 0 16 16" id="heart" xmlns="http://www.w3.org/2000/svg"><path fill-rule="evenodd" clip-rule="evenodd" d="M8 13.271C4.934 11.525 3.224 9.79 2.397 8.284c-.847-1.542-.773-2.84-.303-3.761.965-1.894 3.71-2.5 5.383-.384L8 4.8l.523-.661c1.672-2.116 4.418-1.51 5.383.384.47.921.543 2.22-.303 3.76-.827 1.507-2.537 3.242-5.603 4.989zM8 2.737C5.647.502 2.176 1.426.906 3.917c-.697 1.368-.707 3.135.322 5.008 1.02 1.857 3.052 3.817 6.45 5.694l.322.179.322-.179c3.398-1.877 5.43-3.837 6.45-5.694 1.028-1.873 1.019-3.64.322-5.008C13.824 1.426 10.353.502 8 2.737z" fill="#FF3F3A"/></svg><svg fill="none" viewBox="0 0 24 24" id="iPhone" xmlns="http://www.w3.org/2000/svg"><path fill-rule="evenodd" clip-rule="evenodd" d="M8.5 2.922a1.5 1.5 0 00-1.5 1.5v15.156a1.5 1.5 0 001.5 1.5h7a1.5 1.5 0 001.5-1.5V4.422a1.5 1.5 0 00-1.5-1.5h-.083l-.244.584a1 1 0 01-.923.616h-4.5a1 1 0 01-.923-.616l-.244-.584H8.5zM5 4.422a3.5 3.5 0 013.5-3.5h7a3.5 3.5 0 013.5 3.5v15.156a3.5 3.5 0 01-3.5 3.5h-7a3.5 3.5 0 01-3.5-3.5V4.422z" fill="#1E212C"/></svg><svg fill="none" viewBox="0 0 24 24" id="instagram" xmlns="http://www.w3.org/2000/svg"><path d="M21.98 7.88c-.046-1.063-.218-1.793-.464-2.426a4.88 4.88 0 00-1.157-1.774 4.922 4.922 0 00-1.77-1.153c-.637-.246-1.363-.418-2.426-.464-1.07-.051-1.41-.063-4.126-.063-2.715 0-3.055.012-4.122.059-1.062.046-1.793.218-2.426.464A4.88 4.88 0 003.715 3.68a4.924 4.924 0 00-1.152 1.77c-.247.637-.418 1.363-.465 2.426-.051 1.07-.063 1.41-.063 4.126 0 2.715.012 3.055.059 4.122.047 1.063.219 1.793.465 2.426a4.932 4.932 0 001.156 1.774c.5.508 1.106.902 1.77 1.152.637.247 1.364.419 2.426.465 1.067.047 1.407.059 4.122.059 2.716 0 3.056-.012 4.122-.059 1.063-.046 1.793-.218 2.426-.464a5.116 5.116 0 002.927-2.927c.246-.637.418-1.364.465-2.426.047-1.067.058-1.407.058-4.122s-.004-3.055-.05-4.122zm-1.8 8.166c-.044.977-.208 1.504-.345 1.855a3.317 3.317 0 01-1.898 1.9c-.352.136-.883.3-1.856.343-1.055.047-1.371.059-4.04.059-2.668 0-2.989-.012-4.04-.059-.977-.043-1.504-.207-1.856-.344a3.077 3.077 0 01-1.148-.746 3.11 3.11 0 01-.747-1.148c-.136-.352-.3-.883-.343-1.856-.047-1.055-.059-1.372-.059-4.04 0-2.669.012-2.99.059-4.04.043-.977.207-1.504.343-1.856A3.04 3.04 0 015 4.965a3.105 3.105 0 011.15-.746c.35-.137.882-.3 1.855-.344 1.055-.046 1.372-.058 4.04-.058 2.672 0 2.989.012 4.04.058.977.043 1.504.207 1.856.344.433.16.828.414 1.148.746.332.325.586.715.747 1.15.136.35.3.882.343 1.855.047 1.055.059 1.371.059 4.04 0 2.668-.012 2.98-.059 4.036z" fill="#1E212C"/><path d="M12.037 6.864A5.139 5.139 0 006.9 12.002a5.139 5.139 0 105.138-5.138zm0 8.47a3.333 3.333 0 11.001-6.666 3.333 3.333 0 010 6.667zM18.578 6.661a1.2 1.2 0 11-2.4 0 1.2 1.2 0 012.4 0z" fill="#1E212C"/></svg><svg fill="none" viewBox="0 0 24 24" id="layouts" xmlns="http://www.w3.org/2000/svg"><path fill-rule="evenodd" clip-rule="evenodd" d="M11.553 1.106a1 1 0 01.894 0l10 5a1 1 0 010 1.788l-10 5a1 1 0 01-.894 0l-10-5a1 1 0 010-1.788l10-5zM4.236 7L12 10.882 19.764 7 12 3.118 4.236 7z" fill="#1E212C"/><path fill-rule="evenodd" clip-rule="evenodd" d="M1.106 11.553a1 1 0 011.341-.447L12 15.882l9.553-4.776a1 1 0 11.894 1.788l-10 5a1 1 0 01-.894 0l-10-5a1 1 0 01-.447-1.341z" fill="#1E212C"/><path fill-rule="evenodd" clip-rule="evenodd" d="M1.106 16.553a1 1 0 011.341-.447L12 20.882l9.553-4.776a1 1 0 11.894 1.788l-10 5a1 1 0 01-.894 0l-10-5a1 1 0 01-.447-1.341z" fill="#1E212C"/></svg><svg fill="none" viewBox="0 0 24 24" id="like" xmlns="http://www.w3.org/2000/svg"><path fill-rule="evenodd" clip-rule="evenodd" d="M14.182 3.25a.393.393 0 00-.34.195l-.006.01-4.586 7.436v9.859h8.586a.393.393 0 00.383-.308l.004-.015 2.55-9.96a.393.393 0 00-.386-.467H16.5c-.651 0-1.31-.218-1.79-.686-.504-.492-.738-1.197-.588-1.956l.719-3.639a.393.393 0 00-.385-.469h-.274zM7.25 20.75v-9.143H3.707a.393.393 0 00-.393.39l-.064 8.357a.393.393 0 00.393.396H7.25zm.442-11.143l4.43-7.182a2.393 2.393 0 012.06-1.175h.274a2.393 2.393 0 012.347 2.857l-.719 3.638a.208.208 0 00-.002.1c.002.008.007.02.025.038.042.04.166.117.393.117h3.887a2.393 2.393 0 012.336 2.912l-.004.016-2.551 9.966a2.393 2.393 0 01-2.332 1.856H3.643a2.393 2.393 0 01-2.393-2.411l.064-8.357a2.393 2.393 0 012.393-2.375h3.985z" fill="#1E212C"/></svg><svg fill="none" viewBox="0 0 24 24" id="linked-In" xmlns="http://www.w3.org/2000/svg"><path d="M21.995 22H22v-7.336c0-3.588-.773-6.352-4.968-6.352-2.016 0-3.37 1.106-3.922 2.155h-.058v-1.82H9.074v13.352h4.142v-6.611c0-1.741.33-3.425 2.486-3.425 2.124 0 2.156 1.987 2.156 3.536V22h4.137zM2.33 8.648h4.147V22H2.33V8.648zM4.402 2A2.402 2.402 0 002 4.402c0 1.325 1.076 2.424 2.402 2.424 1.325 0 2.401-1.098 2.401-2.424A2.403 2.403 0 004.402 2z" fill="#1E212C"/></svg><svg fill="none" viewBox="0 0 24 24" id="mail" xmlns="http://www.w3.org/2000/svg"><path fill-rule="evenodd" clip-rule="evenodd" d="M22.75 18V7a3 3 0 00-3-3H4.25a3 3 0 00-3 3v11a3 3 0 003 3h15.5a3 3 0 003-3zm-2-8.74V18a1 1 0 01-1 1H4.25a1 1 0 01-1-1V9.26l7.063 4.802a3 3 0 003.374 0L20.75 9.26zm-.011-2.411A1 1 0 0019.75 6H4.25a1 1 0 00-.989.848l8.177 5.56a1 1 0 001.124 0l8.177-5.56z" fill="#1E212C"/></svg><svg fill="none" viewBox="0 0 24 24" id="profile" xmlns="http://www.w3.org/2000/svg"><path fill-rule="evenodd" clip-rule="evenodd" d="M12 3.25a3.5 3.5 0 100 7 3.5 3.5 0 000-7zm-5.5 3.5a5.5 5.5 0 1111 0 5.5 5.5 0 01-11 0zM6.104 15.25c-.693 0-1.235.338-1.455.823-.304.67-.58 1.47-.645 2.228-.03.339.112.589.307.71C5.34 19.65 7.725 20.75 12 20.75c4.275 0 6.66-1.1 7.689-1.74.194-.12.336-.37.307-.709-.066-.758-.341-1.557-.646-2.228-.22-.485-.761-.823-1.455-.823H6.104zm-3.276-.003c.608-1.34 1.965-1.997 3.276-1.997h11.792c1.311 0 2.669.656 3.277 1.997.349.77.724 1.805.816 2.883.084.982-.324 2.008-1.244 2.58-1.354.84-4.105 2.04-8.745 2.04-4.64 0-7.391-1.2-8.745-2.04-.92-.572-1.328-1.598-1.244-2.58.093-1.078.467-2.113.817-2.883z" fill="#1E212C"/></svg><svg fill="none" viewBox="0 0 24 24" id="star" xmlns="http://www.w3.org/2000/svg"><path fill-rule="evenodd" clip-rule="evenodd" d="M10.17 2.202c.694-1.603 2.966-1.603 3.66 0l2.102 4.846 5.26.501c1.738.166 2.44 2.327 1.13 3.483l-3.96 3.496 1.15 5.156c.379 1.705-1.46 3.04-2.963 2.152L12 19.151l-4.549 2.685c-1.504.888-3.342-.447-2.962-2.152l1.148-5.156-3.96-3.496C.369 9.876 1.072 7.715 2.81 7.549l5.259-.5 2.101-4.847zm3.932 5.64L12 2.996 9.9 7.841a1.996 1.996 0 01-1.642 1.193l-5.259.5 3.96 3.497c.545.481.785 1.22.627 1.93l-1.148 5.156 4.549-2.686a1.996 1.996 0 012.029 0l4.549 2.686-1.149-5.156a1.996 1.996 0 01.627-1.93l3.96-3.496-5.259-.501a1.996 1.996 0 01-1.641-1.193z" fill="#1E212C"/></svg><svg fill="none" viewBox="0 0 24 24" id="telegram" xmlns="http://www.w3.org/2000/svg"><path d="M9.633 15.181l-.364 5.584c.52 0 .746-.244 1.016-.537l2.441-2.545 5.059 4.041c.927.564 1.581.267 1.831-.93l3.32-16.973h.001c.295-1.497-.495-2.082-1.4-1.715L2.022 10.257c-1.332.564-1.311 1.374-.226 1.741l4.99 1.693 11.59-7.91c.545-.395 1.04-.177.633.217l-9.375 9.183z" fill="#1E212C"/></svg><svg fill="none" viewBox="0 0 24 24" id="twitter" xmlns="http://www.w3.org/2000/svg"><path d="M22.5 5.772a8.902 8.902 0 01-2.474.65 4.18 4.18 0 001.894-2.28 8.922 8.922 0 01-2.737 1 4.387 4.387 0 00-3.145-1.302c-2.379 0-4.308 1.847-4.308 4.124 0 .323.038.638.112.94-3.58-.173-6.754-1.815-8.879-4.31a3.962 3.962 0 00-.583 2.073c0 1.431.762 2.694 1.916 3.433a4.455 4.455 0 01-1.95-.518v.052c0 1.997 1.485 3.665 3.454 4.044-.36.093-.741.145-1.135.145a4.31 4.31 0 01-.81-.077c.548 1.64 2.138 2.832 4.023 2.865a8.89 8.89 0 01-5.35 1.763c-.348 0-.69-.02-1.028-.057a12.572 12.572 0 006.603 1.856c7.925 0 12.257-6.285 12.257-11.736l-.015-.534a8.412 8.412 0 002.155-2.13z" fill="#1E212C"/></svg><svg fill="none" viewBox="0 0 24 24" id="youTube" xmlns="http://www.w3.org/2000/svg"><path fill-rule="evenodd" clip-rule="evenodd" d="M21.39 4.114a3.007 3.007 0 012.116 2.115c.514 1.878.494 5.792.494 5.792s0 3.895-.494 5.773a3.007 3.007 0 01-2.116 2.115c-1.878.495-9.39.495-9.39.495s-7.493 0-9.39-.514a3.007 3.007 0 01-2.116-2.116C0 15.916 0 12.001 0 12.001S0 8.107.494 6.23A3.068 3.068 0 012.61 4.094C4.488 3.6 12 3.6 12 3.6s7.513 0 9.391.514zm-5.535 7.888L9.608 15.6V8.404l6.247 3.598z" fill="#1E212C"/></svg></svg>