<?xml version="1.0" encoding="utf-8"?><svg viewBox="0 0 24 24" xmlns="http://www.w3.org/2000/svg" xmlns:xlink="http://www.w3.org/1999/xlink"><style>:root>svg{display:none}:root>svg:target{display:block}</style><svg fill="none" viewBox="0 0 24 24" id="chat" xmlns="http://www.w3.org/2000/svg"><path fill-rule="evenodd" clip-rule="evenodd" d="M21.923 10.567a7.753 7.753 0 01-.98 2.787c.037.214.056.43.056.647 0 .752-.218 1.473-.622 2.127-.201.327-.253.71-.273.963-.023.29-.015.607.005.912.023.342.066.7.114 1.04-.39-.115-.814-.229-1.217-.32a8.679 8.679 0 00-.991-.172c-.272-.029-.664-.05-1.015.063a8.139 8.139 0 01-2.5.386 8.045 8.045 0 01-2.882-.514 13.24 13.24 0 01-4.068-.437C9.129 19.873 11.728 21 14.5 21c1.082 0 2.122-.166 3.08-.471h.009c.025 0 .093-.002.22.01.201.022.459.068.756.135.593.134 1.258.33 1.777.495 1.1.35 2.166-.61 1.97-1.727a15.772 15.772 0 01-.207-1.575 4.46 4.46 0 01-.007-.619c.005-.064.011-.103.015-.125A6.012 6.012 0 0023 14a6.026 6.026 0 00-1.077-3.433z" fill="#1E212C"/><path fill-rule="evenodd" clip-rule="evenodd" d="M5.597 5.698C4.249 6.728 3.5 8.082 3.5 9.5c0 .707.184 1.388.529 2.021.131.241.169.49.182.659.015.183.007.372-.009.549a8.768 8.768 0 01-.2 1.148c-.106.46-.243.953-.383 1.415a27.508 27.508 0 011.653-.549c.443-.129.89-.24 1.287-.304.343-.054.84-.107 1.268.041.96.332 2.034.52 3.173.52 2.147 0 4.054-.667 5.403-1.698C17.75 12.27 18.5 10.918 18.5 9.5c0-1.418-.75-2.771-2.097-3.802C15.053 4.667 13.147 4 11 4c-2.148 0-4.054.667-5.403 1.698zM4.382 4.11C6.109 2.79 8.452 2 11 2c2.547 0 4.89.788 6.617 2.11C19.346 5.43 20.5 7.327 20.5 9.5c0 2.172-1.154 4.069-2.883 5.39C15.89 16.213 13.547 17 11 17c-1.343 0-2.626-.219-3.791-.617-.001.003-.096-.006-.338.032-.278.044-.634.13-1.038.248-.806.235-1.71.568-2.4.836-1.193.464-2.409-.682-2.007-1.903.213-.647.465-1.465.628-2.171a6.86 6.86 0 00.157-.877c.007-.077.008-.133.008-.17a6.176 6.176 0 01-.72-2.878c0-2.172 1.154-4.069 2.883-5.39z" fill="#1E212C"/></svg><svg fill="none" viewBox="0 0 24 24" id="layouts" xmlns="http://www.w3.org/2000/svg"><path fill-rule="evenodd" clip-rule="evenodd" d="M11.553 1.106a1 1 0 01.894 0l10 5a1 1 0 010 1.788l-10 5a1 1 0 01-.894 0l-10-5a1 1 0 010-1.788l10-5zM4.236 7L12 10.882 19.764 7 12 3.118 4.236 7z" fill="#1E212C"/><path fill-rule="evenodd" clip-rule="evenodd" d="M1.106 11.553a1 1 0 011.341-.447L12 15.882l9.553-4.776a1 1 0 11.894 1.788l-10 5a1 1 0 01-.894 0l-10-5a1 1 0 01-.447-1.341z" fill="#1E212C"/><path fill-rule="evenodd" clip-rule="evenodd" d="M1.106 16.553a1 1 0 011.341-.447L12 20.882l9.553-4.776a1 1 0 11.894 1.788l-10 5a1 1 0 01-.894 0l-10-5a1 1 0 01-.447-1.341z" fill="#1E212C"/></svg><svg fill="none" viewBox="0 0 24 24" id="like" xmlns="http://www.w3.org/2000/svg"><path fill-rule="evenodd" clip-rule="evenodd" d="M14.182 3.25a.393.393 0 00-.34.195l-.006.01-4.586 7.436v9.859h8.586a.393.393 0 00.383-.308l.004-.015 2.55-9.96a.393.393 0 00-.386-.467H16.5c-.651 0-1.31-.218-1.79-.686-.504-.492-.738-1.197-.588-1.956l.719-3.639a.393.393 0 00-.385-.469h-.274zM7.25 20.75v-9.143H3.707a.393.393 0 00-.393.39l-.064 8.357a.393.393 0 00.393.396H7.25zm.442-11.143l4.43-7.182a2.393 2.393 0 012.06-1.175h.274a2.393 2.393 0 012.347 2.857l-.719 3.638a.208.208 0 00-.002.1c.002.008.007.02.025.038.042.04.166.117.393.117h3.887a2.393 2.393 0 012.336 2.912l-.004.016-2.551 9.966a2.393 2.393 0 01-2.332 1.856H3.643a2.393 2.393 0 01-2.393-2.411l.064-8.357a2.393 2.393 0 012.393-2.375h3.985z" fill="#1E212C"/></svg><svg fill="none" viewBox="0 0 24 24" id="profile" xmlns="http://www.w3.org/2000/svg"><path fill-rule="evenodd" clip-rule="evenodd" d="M12 3.25a3.5 3.5 0 100 7 3.5 3.5 0 000-7zm-5.5 3.5a5.5 5.5 0 1111 0 5.5 5.5 0 01-11 0zM6.104 15.25c-.693 0-1.235.338-1.455.823-.304.67-.58 1.47-.645 2.228-.03.339.112.589.307.71C5.34 19.65 7.725 20.75 12 20.75c4.275 0 6.66-1.1 7.689-1.74.194-.12.336-.37.307-.709-.066-.758-.341-1.557-.646-2.228-.22-.485-.761-.823-1.455-.823H6.104zm-3.276-.003c.608-1.34 1.965-1.997 3.276-1.997h11.792c1.311 0 2.669.656 3.277 1.997.349.77.724 1.805.816 2.883.084.982-.324 2.008-1.244 2.58-1.354.84-4.105 2.04-8.745 2.04-4.64 0-7.391-1.2-8.745-2.04-.92-.572-1.328-1.598-1.244-2.58.093-1.078.467-2.113.817-2.883z" fill="#1E212C"/></svg><svg fill="none" viewBox="0 0 24 24" id="star" xmlns="http://www.w3.org/2000/svg"><path fill-rule="evenodd" clip-rule="evenodd" d="M10.17 2.202c.694-1.603 2.966-1.603 3.66 0l2.102 4.846 5.26.501c1.738.166 2.44 2.327 1.13 3.483l-3.96 3.496 1.15 5.156c.379 1.705-1.46 3.04-2.963 2.152L12 19.151l-4.549 2.685c-1.504.888-3.342-.447-2.962-2.152l1.148-5.156-3.96-3.496C.369 9.876 1.072 7.715 2.81 7.549l5.259-.5 2.101-4.847zm3.932 5.64L12 2.996 9.9 7.841a1.996 1.996 0 01-1.642 1.193l-5.259.5 3.96 3.497c.545.481.785 1.22.627 1.93l-1.148 5.156 4.549-2.686a1.996 1.996 0 012.029 0l4.549 2.686-1.149-5.156a1.996 1.996 0 01.627-1.93l3.96-3.496-5.259-.501a1.996 1.996 0 01-1.641-1.193z" fill="#1E212C"/></svg></svg>